<?xml version="1.0" encoding="utf-8"?>
<!-- Generator: Adobe Illustrator 24.0.3, SVG Export Plug-In . SVG Version: 6.00 Build 0)  -->
<svg version="1.1" id="Layer_1" xmlns="http://www.w3.org/2000/svg" xmlns:xlink="http://www.w3.org/1999/xlink" x="0px" y="0px"
	 viewBox="0 0 365.27 576.08" style="enable-background:new 0 0 365.27 576.08;" xml:space="preserve">
<style type="text/css">
	.st0{fill:none;stroke:#CA1A74;}
	.st1{fill:none;stroke:#CFC7C2;}
</style>
<g>
	<line class="st0" x1="0" y1="52.58" x2="365.27" y2="52.58"/>
	<line class="st0" x1="0" y1="48.08" x2="365.27" y2="48.08"/>
	<line class="st1" x1="0" y1="78.87" x2="365.27" y2="78.87"/>
	<line class="st1" x1="0" y1="105.16" x2="365.27" y2="105.16"/>
	<line class="st1" x1="0" y1="131.45" x2="365.27" y2="131.45"/>
	<line class="st1" x1="0" y1="157.74" x2="365.27" y2="157.74"/>
	<line class="st1" x1="0" y1="184.03" x2="365.27" y2="184.03"/>
	<line class="st1" x1="0" y1="210.31" x2="365.27" y2="210.31"/>
	<line class="st1" x1="0" y1="236.6" x2="365.27" y2="236.6"/>
	<line class="st1" x1="0" y1="262.89" x2="365.27" y2="262.89"/>
	<line class="st1" x1="0" y1="289.18" x2="365.27" y2="289.18"/>
	<line class="st1" x1="0" y1="315.47" x2="365.27" y2="315.47"/>
	<line class="st1" x1="0" y1="341.76" x2="365.27" y2="341.76"/>
	<line class="st1" x1="0" y1="368.05" x2="365.27" y2="368.05"/>
	<line class="st1" x1="0" y1="394.34" x2="365.27" y2="394.34"/>
	<line class="st1" x1="0" y1="420.63" x2="365.27" y2="420.63"/>
	<line class="st1" x1="0" y1="446.92" x2="365.27" y2="446.92"/>
	<line class="st1" x1="0" y1="473.21" x2="365.27" y2="473.21"/>
	<line class="st1" x1="0" y1="499.5" x2="365.27" y2="499.5"/>
	<line class="st1" x1="0" y1="525.79" x2="365.27" y2="525.79"/>
	<line class="st1" x1="0" y1="552.08" x2="365.27" y2="552.08"/>
</g>
</svg>
