<?xml version="1.0" encoding="utf-8"?>
<!-- Generator: Adobe Illustrator 16.0.0, SVG Export Plug-In . SVG Version: 6.00 Build 0)  -->
<!DOCTYPE svg PUBLIC "-//W3C//DTD SVG 1.1//EN" "http://www.w3.org/Graphics/SVG/1.1/DTD/svg11.dtd">
<svg version="1.1" id="Layer_1" xmlns="http://www.w3.org/2000/svg" xmlns:xlink="http://www.w3.org/1999/xlink" x="0px" y="0px"
	 width="64px" height="64px" viewBox="-23.439 -11.656 64 64" enable-background="new -23.439 -11.656 64 64" xml:space="preserve">
<g>
	<path fill="#CB0072" d="M-22.471,29.661v20.548l8.021-8.016l0.12-0.118l0.1,0.134l0.354,0.465l0.076,0.099l-0.089,0.095
		l-8.507,8.516H-5.8l-6.961-9.072l10.253-10.252l9.529,19.324h0.072h13.783l-2.58-9.663L29.65,47.32l0.265,4.062h0.01h8.88
		l-7.961-3.929l-0.075-0.037l-0.011-0.085l-0.039-0.674l-0.016-0.249l0.225,0.109l8.678,4.274V25.808l-11.362-3.045
		c-0.172-0.057-0.229-0.167-0.24-0.219c-0.015-0.056-0.025-0.167,0.068-0.272L39.609,5V2.471l-12.71-0.834
		c-0.218-0.062-0.277-0.189-0.293-0.264c-0.019-0.073-0.021-0.219,0.138-0.368l11.694-11.696H25.992l0.727,11.031L8.127-0.885
		l14.683-9.814H3.615L6.457-0.081l0.031,0.098L6.403,0.081l-16.991,11.361l20.812,5.557l0.247,0.065l-0.184,0.178l-0.48,0.468
		l-0.059,0.059l-0.08-0.026l-32.138-8.566v10.282l10.339-6.91l8.006,16.235l-18.345-9.052v1.8v0.072l18.772,9.267l-10.095,10.092
		L-22.471,29.661z M-18.988-2.245l-3.484-7.082v6.854L-18.988-2.245z M-17.515-1.262l6.033,12.23L4.656,0.186L-17.515-1.262z
		 M-18.515-1.298l-0.016-0.033h-0.006l-3.935-0.264v9.847l9.994,2.68L-18.515-1.298z M5.397-0.659L2.701-10.695h-24.873l4.192,8.486
		l0.012,0.031l0.899,0.061L5.397-0.659z M39.598,1.593v-12.212L28.138,0.837L39.598,1.593z M29.235,22.114l10.36,2.774V6.594
		L29.235,22.114z M40.561-11.656v0.146v63.708v0.146h-0.144h-63.71h-0.146v-0.146v-63.708v-0.146h0.146h63.708H40.561z
		 M12.181,18.867l5.052,18.895l9.945-14.881L12.181,18.867z M29.517,45.381l-1.373-20.933L17.972,39.686L29.517,45.381z
		 M8.573,50.743l6.941-10.4l-15.941-7.864L8.573,50.743z M27.938,21.346L26.724,2.823L12.369,17.181L27.938,21.346z M10.486,19.008
		L-0.85,30.395l16.595,8.285L10.486,19.008z M11.189,15.983L7.11,0.732l18.139,1.193L11.189,15.983z"/>
</g>
</svg>
