<?xml version="1.0" encoding="utf-8"?>
<!-- Generator: Adobe Illustrator 24.1.2, SVG Export Plug-In . SVG Version: 6.00 Build 0)  -->
<svg version="1.1" id="Layer_1" xmlns="http://www.w3.org/2000/svg" xmlns:xlink="http://www.w3.org/1999/xlink" x="0px" y="0px"
	 viewBox="0 0 57.39 42.76" style="enable-background:new 0 0 57.39 42.76;" xml:space="preserve">
<g>
	<rect x="52.68" y="9.16" width="4.71" height="2.38"/>
	<polygon points="49.66,0 46.81,0 45.86,1.9 48.56,1.9 	"/>
	<polygon points="51.3,13.97 45.86,13.97 45.86,10.73 50.44,10.73 50.44,8.31 45.86,8.31 45.86,5.35 51.3,5.35 51.3,2.93 
		43.07,2.93 43.07,16.39 51.3,16.39 	"/>
	<path d="M5.12,15.78C1.64,15.78,0,17.73,0,22.39v0.69c0,4.66,1.64,6.61,5.12,6.61c3.5,0,5.14-1.95,5.14-6.61v-0.69
		C10.26,17.73,8.63,15.78,5.12,15.78z M7.42,23.08c0,2.69-0.48,4.19-2.21,4.19H5.05c-1.72,0-2.22-1.5-2.22-4.19v-0.69
		c0-2.69,0.5-4.19,2.22-4.19h0.16c1.72,0,2.21,1.5,2.21,4.19V23.08z"/>
	<path d="M41.87,29.16c1.32-0.43,2.34-1.41,2.34-3.57v-0.34c0-1.45-0.69-2.28-1.66-2.74c0.78-0.45,1.31-1.21,1.31-2.43v-0.34
		c0-2.24-1.12-3.17-2.53-3.53l-2.05-5.04c1.21-0.5,2.12-1.57,2.12-3.74V7.07c0-3.57-2.48-4.14-4.67-4.14h-4.42V16h-1.93v5.38h-3.92
		V16h-1.93v-4.45h1.62c2.19,0,4.67-0.55,4.67-4.14V7.07c0-3.57-2.48-4.14-4.67-4.14h-4.41V16H19.1v5.64l0.09,2.71L14.85,16H11.9
		v13.46h2.64v-5.64l-0.09-2.71l4.05,7.79c-2.53,0.22-3.74,1.65-3.74,4.32v0.34h2.76c0-1.71,0.62-2.29,1.57-2.29h0.17
		c0.91,0,1.57,0.6,1.57,1.83v0.17c0,0.74-0.29,1.17-0.9,1.81l-5.17,5.71v1.74h8.83v-2.42h-3.71l-1.23,0.02l3.43-3.76
		c1-1.1,1.5-1.9,1.5-3.48v-0.31c0-1.18-0.53-2.43-1.85-3.15V16.39h1.93v13.07h2.79V23.8h3.92v5.12c-0.27-0.04-0.55-0.06-0.86-0.06
		c-2.93,0-4.4,1.71-4.4,4.04v5.83c0,2.33,1.47,4.04,4.4,4.04c2.93,0,4.4-1.71,4.4-4.04v-5.83c0-1.5-0.62-2.74-1.84-3.43h1.09V16.39
		h1.93v-4.83h1.43l1.7,4.45h-3.13v13.46h2.07c-1.16,0.68-1.72,1.94-1.72,3.76v0.34h2.76c0-1.71,0.62-2.29,1.57-2.29h0.17
		c0.91,0,1.57,0.6,1.57,1.83v0.17c0,0.74-0.29,1.17-0.9,1.81l-5.17,5.71v1.74h8.83v-2.42h-3.71l-1.22,0.02l3.43-3.76
		c1-1.1,1.5-1.9,1.5-3.48v-0.31C44.3,31.24,43.63,29.78,41.87,29.16z M24.55,5.35h1.74c0.76,0,1.72,0.29,1.72,1.81v0.17
		c0,1.52-0.97,1.81-1.72,1.81h-1.74V5.35z M31.17,38.69c0,0.98-0.5,1.66-1.6,1.66H29.5c-1.1,0-1.6-0.67-1.6-1.66v-5.76
		c0-0.98,0.5-1.66,1.6-1.66h0.07c1.1,0,1.6,0.67,1.6,1.66V38.69z M36.86,9.14h-1.74v-3.8h1.74c0.76,0,1.72,0.29,1.72,1.81v0.17
		C38.59,8.85,37.62,9.14,36.86,9.14z M37.91,18.42h1.6c0.72,0,1.52,0.26,1.52,1.36v0.22c0,1.1-0.79,1.36-1.52,1.36h-1.6V18.42z
		 M37.91,23.8h1.85c0.78,0,1.62,0.31,1.62,1.54v0.15c0,1.23-0.84,1.55-1.62,1.55h-1.85V23.8z"/>
	<path d="M50.23,28.85c-2.93,0-4.4,1.71-4.4,4.04v5.83c0,2.33,1.47,4.04,4.4,4.04c2.93,0,4.4-1.71,4.4-4.04v-5.83
		C54.63,30.56,53.16,28.85,50.23,28.85z M51.87,38.69c0,0.98-0.5,1.66-1.6,1.66H50.2c-1.1,0-1.6-0.67-1.6-1.66v-5.76
		c0-0.98,0.5-1.66,1.6-1.66h0.07c1.1,0,1.6,0.67,1.6,1.66V38.69z"/>
</g>
</svg>
