<?xml version="1.0" encoding="utf-8"?>
<!-- Generator: Adobe Illustrator 24.0.3, SVG Export Plug-In . SVG Version: 6.00 Build 0)  -->
<svg version="1.1" id="Layer_1" xmlns="http://www.w3.org/2000/svg" xmlns:xlink="http://www.w3.org/1999/xlink" x="0px" y="0px"
	 viewBox="0 0 308 26.11" style="enable-background:new 0 0 308 26.11;" xml:space="preserve">
<style type="text/css">
	.st0{fill:url(#SVGID_1_);}
	.st1{fill:none;stroke:#010101;stroke-width:0.25;stroke-miterlimit:10;}
	.st2{fill:url(#SVGID_2_);}
	.st3{fill:url(#SVGID_3_);}
	.st4{fill:url(#SVGID_4_);}
	.st5{fill:url(#SVGID_5_);}
	.st6{fill:url(#SVGID_6_);}
	.st7{fill:url(#SVGID_7_);}
	.st8{fill:url(#SVGID_8_);}
	.st9{fill:url(#SVGID_9_);}
	.st10{fill:url(#SVGID_10_);}
	.st11{fill:url(#SVGID_11_);}
	.st12{fill:url(#SVGID_12_);}
	.st13{fill:url(#SVGID_13_);}
	.st14{fill:url(#SVGID_14_);}
	.st15{fill:url(#SVGID_15_);}
	.st16{fill:url(#SVGID_16_);}
	.st17{fill:url(#SVGID_17_);}
	.st18{fill:url(#SVGID_18_);}
	.st19{fill:url(#SVGID_19_);}
	.st20{fill:url(#SVGID_20_);}
	.st21{fill:url(#SVGID_21_);}
	.st22{fill:url(#SVGID_22_);}
	.st23{fill:url(#SVGID_23_);}
	.st24{fill:url(#SVGID_24_);}
	.st25{fill:url(#SVGID_25_);}
	.st26{fill:url(#SVGID_26_);}
	.st27{fill:url(#SVGID_27_);}
	.st28{fill:url(#SVGID_28_);}
	.st29{fill:url(#SVGID_29_);}
	.st30{fill:url(#SVGID_30_);}
	.st31{fill:url(#SVGID_31_);}
	.st32{fill:url(#SVGID_32_);}
	.st33{fill:url(#SVGID_33_);}
	.st34{fill:url(#SVGID_34_);}
	.st35{fill:url(#SVGID_35_);}
	.st36{fill:url(#SVGID_36_);}
	.st37{fill:url(#SVGID_37_);}
	.st38{fill:url(#SVGID_38_);}
	.st39{fill:url(#SVGID_39_);}
	.st40{fill:url(#SVGID_40_);}
	.st41{fill:url(#SVGID_41_);}
	.st42{fill:url(#SVGID_42_);}
	.st43{fill:url(#SVGID_43_);}
	.st44{fill:url(#SVGID_44_);}
	.st45{fill:url(#SVGID_45_);}
	.st46{fill:url(#SVGID_46_);}
	.st47{fill:url(#SVGID_47_);}
	.st48{fill:url(#SVGID_48_);}
	.st49{fill:url(#SVGID_49_);}
	.st50{fill:url(#SVGID_50_);}
	.st51{fill:url(#SVGID_51_);}
	.st52{fill:url(#SVGID_52_);}
	.st53{fill:url(#SVGID_53_);}
	.st54{fill:url(#SVGID_54_);}
	.st55{fill:url(#SVGID_55_);}
	.st56{fill:url(#SVGID_56_);}
	.st57{fill:url(#SVGID_57_);}
	.st58{fill:url(#SVGID_58_);}
	.st59{fill:url(#SVGID_59_);}
	.st60{fill:url(#SVGID_60_);}
	.st61{fill:url(#SVGID_61_);}
	.st62{fill:url(#SVGID_62_);}
	.st63{fill:url(#SVGID_63_);}
	.st64{fill:url(#SVGID_64_);}
	.st65{fill:url(#SVGID_65_);}
	.st66{fill:url(#SVGID_66_);}
	.st67{fill:url(#SVGID_67_);}
	.st68{fill:url(#SVGID_68_);}
	.st69{fill:url(#SVGID_69_);}
	.st70{fill:url(#SVGID_70_);}
	.st71{fill:url(#SVGID_71_);}
	.st72{fill:url(#SVGID_72_);}
	.st73{fill:url(#SVGID_73_);}
	.st74{fill:url(#SVGID_74_);}
	.st75{fill:url(#SVGID_75_);}
	.st76{fill:url(#SVGID_76_);}
	.st77{fill:url(#SVGID_77_);}
	.st78{fill:url(#SVGID_78_);}
	.st79{fill:url(#SVGID_79_);}
	.st80{fill:url(#SVGID_80_);}
	.st81{fill:url(#SVGID_81_);}
	.st82{fill:url(#SVGID_82_);}
	.st83{fill:url(#SVGID_83_);}
	.st84{fill:url(#SVGID_84_);}
</style>
<g>
	<linearGradient id="SVGID_1_" gradientUnits="userSpaceOnUse" x1="22" y1="25.6091" x2="22" y2="15.6091">
		<stop  offset="0" style="stop-color:#231F20"/>
		<stop  offset="1" style="stop-color:#3F3E3F;stop-opacity:0.9176"/>
	</linearGradient>
	<path class="st0" d="M16,23.61c0,1.66,1.34,2,3,2h6c1.66,0,3-0.34,3-2v-6c0-1.66-1.34-2-3-2h-6c-1.66,0-3,0.34-3,2V23.61z"/>
	<path class="st1" d="M16,23.61c0,1.66,1.34,2,3,2h6c1.66,0,3-0.34,3-2v-6c0-1.66-1.34-2-3-2h-6c-1.66,0-3,0.34-3,2V23.61z"/>
	<g>
		<g>
			<linearGradient id="SVGID_2_" gradientUnits="userSpaceOnUse" x1="19.8653" y1="-1.1643" x2="19.8653" y2="22.1381">
				<stop  offset="0" style="stop-color:#8F9293"/>
				<stop  offset="0.2151" style="stop-color:#BBBDBF"/>
				<stop  offset="0.4409" style="stop-color:#FFFFFF"/>
				<stop  offset="0.8065" style="stop-color:#BBBDBF"/>
				<stop  offset="1" style="stop-color:#595A5C"/>
			</linearGradient>
			<path class="st2" d="M21.49,21.88c0,1.19-3.25,1.19-3.25,0V0.9c0-1.2,3.25-1.2,3.25,0V21.88z"/>
			<linearGradient id="SVGID_3_" gradientUnits="userSpaceOnUse" x1="16.6556" y1="11.3879" x2="21.7177" y2="11.3879">
				<stop  offset="0" style="stop-color:#595A5C"/>
				<stop  offset="1" style="stop-color:#E5E6E7;stop-opacity:0"/>
			</linearGradient>
			<path class="st3" d="M21.49,21.88c0,1.19-3.25,1.19-3.25,0V0.9c0-1.2,3.25-1.2,3.25,0V21.88z"/>
			
				<linearGradient id="SVGID_4_" gradientUnits="userSpaceOnUse" x1="-4408.8267" y1="11.3879" x2="-4403.7656" y2="11.3879" gradientTransform="matrix(-1 0 0 1 -4385.752 0)">
				<stop  offset="0" style="stop-color:#595A5C"/>
				<stop  offset="1" style="stop-color:#E5E6E7;stop-opacity:0"/>
			</linearGradient>
			<path class="st4" d="M18.24,21.88c0,1.19,3.25,1.19,3.25,0V0.9c0-1.2-3.25-1.2-3.25,0V21.88z"/>
		</g>
		<g>
			<linearGradient id="SVGID_5_" gradientUnits="userSpaceOnUse" x1="24.1339" y1="-1.1643" x2="24.1339" y2="22.1381">
				<stop  offset="0" style="stop-color:#8F9293"/>
				<stop  offset="0.2151" style="stop-color:#BBBDBF"/>
				<stop  offset="0.4409" style="stop-color:#FFFFFF"/>
				<stop  offset="0.8065" style="stop-color:#BBBDBF"/>
				<stop  offset="1" style="stop-color:#595A5C"/>
			</linearGradient>
			<path class="st5" d="M25.76,21.88c0,1.19-3.25,1.19-3.25,0V0.9c0-1.2,3.25-1.2,3.25,0V21.88z"/>
			<linearGradient id="SVGID_6_" gradientUnits="userSpaceOnUse" x1="20.9242" y1="11.3879" x2="25.9863" y2="11.3879">
				<stop  offset="0" style="stop-color:#595A5C"/>
				<stop  offset="1" style="stop-color:#E5E6E7;stop-opacity:0"/>
			</linearGradient>
			<path class="st6" d="M25.76,21.88c0,1.19-3.25,1.19-3.25,0V0.9c0-1.2,3.25-1.2,3.25,0V21.88z"/>
			
				<linearGradient id="SVGID_7_" gradientUnits="userSpaceOnUse" x1="-4413.0962" y1="11.3879" x2="-4408.0342" y2="11.3879" gradientTransform="matrix(-1 0 0 1 -4385.752 0)">
				<stop  offset="0" style="stop-color:#595A5C"/>
				<stop  offset="1" style="stop-color:#E5E6E7;stop-opacity:0"/>
			</linearGradient>
			<path class="st7" d="M22.51,21.88c0,1.19,3.25,1.19,3.25,0V0.9c0-1.2-3.25-1.2-3.25,0V21.88z"/>
		</g>
	</g>
</g>
<g>
	<linearGradient id="SVGID_8_" gradientUnits="userSpaceOnUse" x1="46" y1="25.6091" x2="46" y2="15.6091">
		<stop  offset="0" style="stop-color:#231F20"/>
		<stop  offset="1" style="stop-color:#3F3E3F;stop-opacity:0.9176"/>
	</linearGradient>
	<path class="st8" d="M40,23.61c0,1.66,1.34,2,3,2h6c1.66,0,3-0.34,3-2v-6c0-1.66-1.34-2-3-2h-6c-1.66,0-3,0.34-3,2V23.61z"/>
	<path class="st1" d="M40,23.61c0,1.66,1.34,2,3,2h6c1.66,0,3-0.34,3-2v-6c0-1.66-1.34-2-3-2h-6c-1.66,0-3,0.34-3,2V23.61z"/>
	<g>
		<g>
			<linearGradient id="SVGID_9_" gradientUnits="userSpaceOnUse" x1="43.8653" y1="-1.1643" x2="43.8653" y2="22.1381">
				<stop  offset="0" style="stop-color:#8F9293"/>
				<stop  offset="0.2151" style="stop-color:#BBBDBF"/>
				<stop  offset="0.4409" style="stop-color:#FFFFFF"/>
				<stop  offset="0.8065" style="stop-color:#BBBDBF"/>
				<stop  offset="1" style="stop-color:#595A5C"/>
			</linearGradient>
			<path class="st9" d="M45.49,21.88c0,1.19-3.25,1.19-3.25,0V0.9c0-1.2,3.25-1.2,3.25,0V21.88z"/>
			<linearGradient id="SVGID_10_" gradientUnits="userSpaceOnUse" x1="40.6556" y1="11.3879" x2="45.7177" y2="11.3879">
				<stop  offset="0" style="stop-color:#595A5C"/>
				<stop  offset="1" style="stop-color:#E5E6E7;stop-opacity:0"/>
			</linearGradient>
			<path class="st10" d="M45.49,21.88c0,1.19-3.25,1.19-3.25,0V0.9c0-1.2,3.25-1.2,3.25,0V21.88z"/>
			
				<linearGradient id="SVGID_11_" gradientUnits="userSpaceOnUse" x1="-4432.8267" y1="11.3879" x2="-4427.7656" y2="11.3879" gradientTransform="matrix(-1 0 0 1 -4385.752 0)">
				<stop  offset="0" style="stop-color:#595A5C"/>
				<stop  offset="1" style="stop-color:#E5E6E7;stop-opacity:0"/>
			</linearGradient>
			<path class="st11" d="M42.24,21.88c0,1.19,3.25,1.19,3.25,0V0.9c0-1.2-3.25-1.2-3.25,0V21.88z"/>
		</g>
		<g>
			<linearGradient id="SVGID_12_" gradientUnits="userSpaceOnUse" x1="48.1339" y1="-1.1643" x2="48.1339" y2="22.1381">
				<stop  offset="0" style="stop-color:#8F9293"/>
				<stop  offset="0.2151" style="stop-color:#BBBDBF"/>
				<stop  offset="0.4409" style="stop-color:#FFFFFF"/>
				<stop  offset="0.8065" style="stop-color:#BBBDBF"/>
				<stop  offset="1" style="stop-color:#595A5C"/>
			</linearGradient>
			<path class="st12" d="M49.76,21.88c0,1.19-3.25,1.19-3.25,0V0.9c0-1.2,3.25-1.2,3.25,0V21.88z"/>
			<linearGradient id="SVGID_13_" gradientUnits="userSpaceOnUse" x1="44.9242" y1="11.3879" x2="49.9863" y2="11.3879">
				<stop  offset="0" style="stop-color:#595A5C"/>
				<stop  offset="1" style="stop-color:#E5E6E7;stop-opacity:0"/>
			</linearGradient>
			<path class="st13" d="M49.76,21.88c0,1.19-3.25,1.19-3.25,0V0.9c0-1.2,3.25-1.2,3.25,0V21.88z"/>
			
				<linearGradient id="SVGID_14_" gradientUnits="userSpaceOnUse" x1="-4437.0962" y1="11.3879" x2="-4432.0342" y2="11.3879" gradientTransform="matrix(-1 0 0 1 -4385.752 0)">
				<stop  offset="0" style="stop-color:#595A5C"/>
				<stop  offset="1" style="stop-color:#E5E6E7;stop-opacity:0"/>
			</linearGradient>
			<path class="st14" d="M46.51,21.88c0,1.19,3.25,1.19,3.25,0V0.9c0-1.2-3.25-1.2-3.25,0V21.88z"/>
		</g>
	</g>
</g>
<g>
	<linearGradient id="SVGID_15_" gradientUnits="userSpaceOnUse" x1="70" y1="25.6091" x2="70" y2="15.6091">
		<stop  offset="0" style="stop-color:#231F20"/>
		<stop  offset="1" style="stop-color:#3F3E3F;stop-opacity:0.9176"/>
	</linearGradient>
	<path class="st15" d="M64,23.61c0,1.66,1.34,2,3,2h6c1.66,0,3-0.34,3-2v-6c0-1.66-1.34-2-3-2h-6c-1.66,0-3,0.34-3,2V23.61z"/>
	<path class="st1" d="M64,23.61c0,1.66,1.34,2,3,2h6c1.66,0,3-0.34,3-2v-6c0-1.66-1.34-2-3-2h-6c-1.66,0-3,0.34-3,2V23.61z"/>
	<g>
		<g>
			<linearGradient id="SVGID_16_" gradientUnits="userSpaceOnUse" x1="67.8653" y1="-1.1643" x2="67.8653" y2="22.1381">
				<stop  offset="0" style="stop-color:#8F9293"/>
				<stop  offset="0.2151" style="stop-color:#BBBDBF"/>
				<stop  offset="0.4409" style="stop-color:#FFFFFF"/>
				<stop  offset="0.8065" style="stop-color:#BBBDBF"/>
				<stop  offset="1" style="stop-color:#595A5C"/>
			</linearGradient>
			<path class="st16" d="M69.49,21.88c0,1.19-3.25,1.19-3.25,0V0.9c0-1.2,3.25-1.2,3.25,0V21.88z"/>
			<linearGradient id="SVGID_17_" gradientUnits="userSpaceOnUse" x1="64.6556" y1="11.3879" x2="69.7177" y2="11.3879">
				<stop  offset="0" style="stop-color:#595A5C"/>
				<stop  offset="1" style="stop-color:#E5E6E7;stop-opacity:0"/>
			</linearGradient>
			<path class="st17" d="M69.49,21.88c0,1.19-3.25,1.19-3.25,0V0.9c0-1.2,3.25-1.2,3.25,0V21.88z"/>
			
				<linearGradient id="SVGID_18_" gradientUnits="userSpaceOnUse" x1="-4456.8267" y1="11.3879" x2="-4451.7656" y2="11.3879" gradientTransform="matrix(-1 0 0 1 -4385.752 0)">
				<stop  offset="0" style="stop-color:#595A5C"/>
				<stop  offset="1" style="stop-color:#E5E6E7;stop-opacity:0"/>
			</linearGradient>
			<path class="st18" d="M66.24,21.88c0,1.19,3.25,1.19,3.25,0V0.9c0-1.2-3.25-1.2-3.25,0V21.88z"/>
		</g>
		<g>
			<linearGradient id="SVGID_19_" gradientUnits="userSpaceOnUse" x1="72.1339" y1="-1.1643" x2="72.1339" y2="22.1381">
				<stop  offset="0" style="stop-color:#8F9293"/>
				<stop  offset="0.2151" style="stop-color:#BBBDBF"/>
				<stop  offset="0.4409" style="stop-color:#FFFFFF"/>
				<stop  offset="0.8065" style="stop-color:#BBBDBF"/>
				<stop  offset="1" style="stop-color:#595A5C"/>
			</linearGradient>
			<path class="st19" d="M73.76,21.88c0,1.19-3.25,1.19-3.25,0V0.9c0-1.2,3.25-1.2,3.25,0V21.88z"/>
			<linearGradient id="SVGID_20_" gradientUnits="userSpaceOnUse" x1="68.9242" y1="11.3879" x2="73.9863" y2="11.3879">
				<stop  offset="0" style="stop-color:#595A5C"/>
				<stop  offset="1" style="stop-color:#E5E6E7;stop-opacity:0"/>
			</linearGradient>
			<path class="st20" d="M73.76,21.88c0,1.19-3.25,1.19-3.25,0V0.9c0-1.2,3.25-1.2,3.25,0V21.88z"/>
			
				<linearGradient id="SVGID_21_" gradientUnits="userSpaceOnUse" x1="-4461.0962" y1="11.3879" x2="-4456.0342" y2="11.3879" gradientTransform="matrix(-1 0 0 1 -4385.752 0)">
				<stop  offset="0" style="stop-color:#595A5C"/>
				<stop  offset="1" style="stop-color:#E5E6E7;stop-opacity:0"/>
			</linearGradient>
			<path class="st21" d="M70.51,21.88c0,1.19,3.25,1.19,3.25,0V0.9c0-1.2-3.25-1.2-3.25,0V21.88z"/>
		</g>
	</g>
</g>
<g>
	<linearGradient id="SVGID_22_" gradientUnits="userSpaceOnUse" x1="94" y1="25.6091" x2="94" y2="15.6091">
		<stop  offset="0" style="stop-color:#231F20"/>
		<stop  offset="1" style="stop-color:#3F3E3F;stop-opacity:0.9176"/>
	</linearGradient>
	<path class="st22" d="M88,23.61c0,1.66,1.34,2,3,2h6c1.66,0,3-0.34,3-2v-6c0-1.66-1.34-2-3-2h-6c-1.66,0-3,0.34-3,2V23.61z"/>
	<path class="st1" d="M88,23.61c0,1.66,1.34,2,3,2h6c1.66,0,3-0.34,3-2v-6c0-1.66-1.34-2-3-2h-6c-1.66,0-3,0.34-3,2V23.61z"/>
	<g>
		<g>
			<linearGradient id="SVGID_23_" gradientUnits="userSpaceOnUse" x1="91.8653" y1="-1.1643" x2="91.8653" y2="22.1381">
				<stop  offset="0" style="stop-color:#8F9293"/>
				<stop  offset="0.2151" style="stop-color:#BBBDBF"/>
				<stop  offset="0.4409" style="stop-color:#FFFFFF"/>
				<stop  offset="0.8065" style="stop-color:#BBBDBF"/>
				<stop  offset="1" style="stop-color:#595A5C"/>
			</linearGradient>
			<path class="st23" d="M93.49,21.88c0,1.19-3.25,1.19-3.25,0V0.9c0-1.2,3.25-1.2,3.25,0V21.88z"/>
			<linearGradient id="SVGID_24_" gradientUnits="userSpaceOnUse" x1="88.6556" y1="11.3879" x2="93.7177" y2="11.3879">
				<stop  offset="0" style="stop-color:#595A5C"/>
				<stop  offset="1" style="stop-color:#E5E6E7;stop-opacity:0"/>
			</linearGradient>
			<path class="st24" d="M93.49,21.88c0,1.19-3.25,1.19-3.25,0V0.9c0-1.2,3.25-1.2,3.25,0V21.88z"/>
			
				<linearGradient id="SVGID_25_" gradientUnits="userSpaceOnUse" x1="-4480.8267" y1="11.3879" x2="-4475.7656" y2="11.3879" gradientTransform="matrix(-1 0 0 1 -4385.752 0)">
				<stop  offset="0" style="stop-color:#595A5C"/>
				<stop  offset="1" style="stop-color:#E5E6E7;stop-opacity:0"/>
			</linearGradient>
			<path class="st25" d="M90.24,21.88c0,1.19,3.25,1.19,3.25,0V0.9c0-1.2-3.25-1.2-3.25,0V21.88z"/>
		</g>
		<g>
			<linearGradient id="SVGID_26_" gradientUnits="userSpaceOnUse" x1="96.1339" y1="-1.1643" x2="96.1339" y2="22.1381">
				<stop  offset="0" style="stop-color:#8F9293"/>
				<stop  offset="0.2151" style="stop-color:#BBBDBF"/>
				<stop  offset="0.4409" style="stop-color:#FFFFFF"/>
				<stop  offset="0.8065" style="stop-color:#BBBDBF"/>
				<stop  offset="1" style="stop-color:#595A5C"/>
			</linearGradient>
			<path class="st26" d="M97.76,21.88c0,1.19-3.25,1.19-3.25,0V0.9c0-1.2,3.25-1.2,3.25,0V21.88z"/>
			<linearGradient id="SVGID_27_" gradientUnits="userSpaceOnUse" x1="92.9242" y1="11.3879" x2="97.9863" y2="11.3879">
				<stop  offset="0" style="stop-color:#595A5C"/>
				<stop  offset="1" style="stop-color:#E5E6E7;stop-opacity:0"/>
			</linearGradient>
			<path class="st27" d="M97.76,21.88c0,1.19-3.25,1.19-3.25,0V0.9c0-1.2,3.25-1.2,3.25,0V21.88z"/>
			
				<linearGradient id="SVGID_28_" gradientUnits="userSpaceOnUse" x1="-4485.0962" y1="11.3879" x2="-4480.0342" y2="11.3879" gradientTransform="matrix(-1 0 0 1 -4385.752 0)">
				<stop  offset="0" style="stop-color:#595A5C"/>
				<stop  offset="1" style="stop-color:#E5E6E7;stop-opacity:0"/>
			</linearGradient>
			<path class="st28" d="M94.51,21.88c0,1.19,3.25,1.19,3.25,0V0.9c0-1.2-3.25-1.2-3.25,0V21.88z"/>
		</g>
	</g>
</g>
<g>
	<linearGradient id="SVGID_29_" gradientUnits="userSpaceOnUse" x1="118" y1="25.6091" x2="118" y2="15.6091">
		<stop  offset="0" style="stop-color:#231F20"/>
		<stop  offset="1" style="stop-color:#3F3E3F;stop-opacity:0.9176"/>
	</linearGradient>
	<path class="st29" d="M112,23.61c0,1.66,1.34,2,3,2h6c1.66,0,3-0.34,3-2v-6c0-1.66-1.34-2-3-2h-6c-1.66,0-3,0.34-3,2V23.61z"/>
	<path class="st1" d="M112,23.61c0,1.66,1.34,2,3,2h6c1.66,0,3-0.34,3-2v-6c0-1.66-1.34-2-3-2h-6c-1.66,0-3,0.34-3,2V23.61z"/>
	<g>
		<g>
			<linearGradient id="SVGID_30_" gradientUnits="userSpaceOnUse" x1="115.8653" y1="-1.1643" x2="115.8653" y2="22.1381">
				<stop  offset="0" style="stop-color:#8F9293"/>
				<stop  offset="0.2151" style="stop-color:#BBBDBF"/>
				<stop  offset="0.4409" style="stop-color:#FFFFFF"/>
				<stop  offset="0.8065" style="stop-color:#BBBDBF"/>
				<stop  offset="1" style="stop-color:#595A5C"/>
			</linearGradient>
			<path class="st30" d="M117.49,21.88c0,1.19-3.25,1.19-3.25,0V0.9c0-1.2,3.25-1.2,3.25,0V21.88z"/>
			<linearGradient id="SVGID_31_" gradientUnits="userSpaceOnUse" x1="112.6556" y1="11.3879" x2="117.7177" y2="11.3879">
				<stop  offset="0" style="stop-color:#595A5C"/>
				<stop  offset="1" style="stop-color:#E5E6E7;stop-opacity:0"/>
			</linearGradient>
			<path class="st31" d="M117.49,21.88c0,1.19-3.25,1.19-3.25,0V0.9c0-1.2,3.25-1.2,3.25,0V21.88z"/>
			
				<linearGradient id="SVGID_32_" gradientUnits="userSpaceOnUse" x1="-4504.8267" y1="11.3879" x2="-4499.7656" y2="11.3879" gradientTransform="matrix(-1 0 0 1 -4385.752 0)">
				<stop  offset="0" style="stop-color:#595A5C"/>
				<stop  offset="1" style="stop-color:#E5E6E7;stop-opacity:0"/>
			</linearGradient>
			<path class="st32" d="M114.24,21.88c0,1.19,3.25,1.19,3.25,0V0.9c0-1.2-3.25-1.2-3.25,0V21.88z"/>
		</g>
		<g>
			<linearGradient id="SVGID_33_" gradientUnits="userSpaceOnUse" x1="120.1339" y1="-1.1643" x2="120.1339" y2="22.1381">
				<stop  offset="0" style="stop-color:#8F9293"/>
				<stop  offset="0.2151" style="stop-color:#BBBDBF"/>
				<stop  offset="0.4409" style="stop-color:#FFFFFF"/>
				<stop  offset="0.8065" style="stop-color:#BBBDBF"/>
				<stop  offset="1" style="stop-color:#595A5C"/>
			</linearGradient>
			<path class="st33" d="M121.76,21.88c0,1.19-3.25,1.19-3.25,0V0.9c0-1.2,3.25-1.2,3.25,0V21.88z"/>
			<linearGradient id="SVGID_34_" gradientUnits="userSpaceOnUse" x1="116.9242" y1="11.3879" x2="121.9863" y2="11.3879">
				<stop  offset="0" style="stop-color:#595A5C"/>
				<stop  offset="1" style="stop-color:#E5E6E7;stop-opacity:0"/>
			</linearGradient>
			<path class="st34" d="M121.76,21.88c0,1.19-3.25,1.19-3.25,0V0.9c0-1.2,3.25-1.2,3.25,0V21.88z"/>
			
				<linearGradient id="SVGID_35_" gradientUnits="userSpaceOnUse" x1="-4509.0962" y1="11.3879" x2="-4504.0342" y2="11.3879" gradientTransform="matrix(-1 0 0 1 -4385.752 0)">
				<stop  offset="0" style="stop-color:#595A5C"/>
				<stop  offset="1" style="stop-color:#E5E6E7;stop-opacity:0"/>
			</linearGradient>
			<path class="st35" d="M118.51,21.88c0,1.19,3.25,1.19,3.25,0V0.9c0-1.2-3.25-1.2-3.25,0V21.88z"/>
		</g>
	</g>
</g>
<g>
	<linearGradient id="SVGID_36_" gradientUnits="userSpaceOnUse" x1="142" y1="25.6091" x2="142" y2="15.6091">
		<stop  offset="0" style="stop-color:#231F20"/>
		<stop  offset="1" style="stop-color:#3F3E3F;stop-opacity:0.9176"/>
	</linearGradient>
	<path class="st36" d="M136,23.61c0,1.66,1.34,2,3,2h6c1.66,0,3-0.34,3-2v-6c0-1.66-1.34-2-3-2h-6c-1.66,0-3,0.34-3,2V23.61z"/>
	<path class="st1" d="M136,23.61c0,1.66,1.34,2,3,2h6c1.66,0,3-0.34,3-2v-6c0-1.66-1.34-2-3-2h-6c-1.66,0-3,0.34-3,2V23.61z"/>
	<g>
		<g>
			<linearGradient id="SVGID_37_" gradientUnits="userSpaceOnUse" x1="139.8653" y1="-1.1643" x2="139.8653" y2="22.1381">
				<stop  offset="0" style="stop-color:#8F9293"/>
				<stop  offset="0.2151" style="stop-color:#BBBDBF"/>
				<stop  offset="0.4409" style="stop-color:#FFFFFF"/>
				<stop  offset="0.8065" style="stop-color:#BBBDBF"/>
				<stop  offset="1" style="stop-color:#595A5C"/>
			</linearGradient>
			<path class="st37" d="M141.49,21.88c0,1.19-3.25,1.19-3.25,0V0.9c0-1.2,3.25-1.2,3.25,0V21.88z"/>
			<linearGradient id="SVGID_38_" gradientUnits="userSpaceOnUse" x1="136.6556" y1="11.3879" x2="141.7177" y2="11.3879">
				<stop  offset="0" style="stop-color:#595A5C"/>
				<stop  offset="1" style="stop-color:#E5E6E7;stop-opacity:0"/>
			</linearGradient>
			<path class="st38" d="M141.49,21.88c0,1.19-3.25,1.19-3.25,0V0.9c0-1.2,3.25-1.2,3.25,0V21.88z"/>
			
				<linearGradient id="SVGID_39_" gradientUnits="userSpaceOnUse" x1="-4528.8267" y1="11.3879" x2="-4523.7656" y2="11.3879" gradientTransform="matrix(-1 0 0 1 -4385.752 0)">
				<stop  offset="0" style="stop-color:#595A5C"/>
				<stop  offset="1" style="stop-color:#E5E6E7;stop-opacity:0"/>
			</linearGradient>
			<path class="st39" d="M138.24,21.88c0,1.19,3.25,1.19,3.25,0V0.9c0-1.2-3.25-1.2-3.25,0V21.88z"/>
		</g>
		<g>
			<linearGradient id="SVGID_40_" gradientUnits="userSpaceOnUse" x1="144.1339" y1="-1.1643" x2="144.1339" y2="22.1381">
				<stop  offset="0" style="stop-color:#8F9293"/>
				<stop  offset="0.2151" style="stop-color:#BBBDBF"/>
				<stop  offset="0.4409" style="stop-color:#FFFFFF"/>
				<stop  offset="0.8065" style="stop-color:#BBBDBF"/>
				<stop  offset="1" style="stop-color:#595A5C"/>
			</linearGradient>
			<path class="st40" d="M145.76,21.88c0,1.19-3.25,1.19-3.25,0V0.9c0-1.2,3.25-1.2,3.25,0V21.88z"/>
			<linearGradient id="SVGID_41_" gradientUnits="userSpaceOnUse" x1="140.9242" y1="11.3879" x2="145.9863" y2="11.3879">
				<stop  offset="0" style="stop-color:#595A5C"/>
				<stop  offset="1" style="stop-color:#E5E6E7;stop-opacity:0"/>
			</linearGradient>
			<path class="st41" d="M145.76,21.88c0,1.19-3.25,1.19-3.25,0V0.9c0-1.2,3.25-1.2,3.25,0V21.88z"/>
			
				<linearGradient id="SVGID_42_" gradientUnits="userSpaceOnUse" x1="-4533.0962" y1="11.3879" x2="-4528.0342" y2="11.3879" gradientTransform="matrix(-1 0 0 1 -4385.752 0)">
				<stop  offset="0" style="stop-color:#595A5C"/>
				<stop  offset="1" style="stop-color:#E5E6E7;stop-opacity:0"/>
			</linearGradient>
			<path class="st42" d="M142.51,21.88c0,1.19,3.25,1.19,3.25,0V0.9c0-1.2-3.25-1.2-3.25,0V21.88z"/>
		</g>
	</g>
</g>
<g>
	<linearGradient id="SVGID_43_" gradientUnits="userSpaceOnUse" x1="166" y1="25.6091" x2="166" y2="15.6091">
		<stop  offset="0" style="stop-color:#231F20"/>
		<stop  offset="1" style="stop-color:#3F3E3F;stop-opacity:0.9176"/>
	</linearGradient>
	<path class="st43" d="M160,23.61c0,1.66,1.34,2,3,2h6c1.66,0,3-0.34,3-2v-6c0-1.66-1.34-2-3-2h-6c-1.66,0-3,0.34-3,2V23.61z"/>
	<path class="st1" d="M160,23.61c0,1.66,1.34,2,3,2h6c1.66,0,3-0.34,3-2v-6c0-1.66-1.34-2-3-2h-6c-1.66,0-3,0.34-3,2V23.61z"/>
	<g>
		<g>
			<linearGradient id="SVGID_44_" gradientUnits="userSpaceOnUse" x1="163.8653" y1="-1.1643" x2="163.8653" y2="22.1381">
				<stop  offset="0" style="stop-color:#8F9293"/>
				<stop  offset="0.2151" style="stop-color:#BBBDBF"/>
				<stop  offset="0.4409" style="stop-color:#FFFFFF"/>
				<stop  offset="0.8065" style="stop-color:#BBBDBF"/>
				<stop  offset="1" style="stop-color:#595A5C"/>
			</linearGradient>
			<path class="st44" d="M165.49,21.88c0,1.19-3.25,1.19-3.25,0V0.9c0-1.2,3.25-1.2,3.25,0V21.88z"/>
			<linearGradient id="SVGID_45_" gradientUnits="userSpaceOnUse" x1="160.6556" y1="11.3879" x2="165.7177" y2="11.3879">
				<stop  offset="0" style="stop-color:#595A5C"/>
				<stop  offset="1" style="stop-color:#E5E6E7;stop-opacity:0"/>
			</linearGradient>
			<path class="st45" d="M165.49,21.88c0,1.19-3.25,1.19-3.25,0V0.9c0-1.2,3.25-1.2,3.25,0V21.88z"/>
			
				<linearGradient id="SVGID_46_" gradientUnits="userSpaceOnUse" x1="-4552.8267" y1="11.3879" x2="-4547.7656" y2="11.3879" gradientTransform="matrix(-1 0 0 1 -4385.752 0)">
				<stop  offset="0" style="stop-color:#595A5C"/>
				<stop  offset="1" style="stop-color:#E5E6E7;stop-opacity:0"/>
			</linearGradient>
			<path class="st46" d="M162.24,21.88c0,1.19,3.25,1.19,3.25,0V0.9c0-1.2-3.25-1.2-3.25,0V21.88z"/>
		</g>
		<g>
			<linearGradient id="SVGID_47_" gradientUnits="userSpaceOnUse" x1="168.1339" y1="-1.1643" x2="168.1339" y2="22.1381">
				<stop  offset="0" style="stop-color:#8F9293"/>
				<stop  offset="0.2151" style="stop-color:#BBBDBF"/>
				<stop  offset="0.4409" style="stop-color:#FFFFFF"/>
				<stop  offset="0.8065" style="stop-color:#BBBDBF"/>
				<stop  offset="1" style="stop-color:#595A5C"/>
			</linearGradient>
			<path class="st47" d="M169.76,21.88c0,1.19-3.25,1.19-3.25,0V0.9c0-1.2,3.25-1.2,3.25,0V21.88z"/>
			<linearGradient id="SVGID_48_" gradientUnits="userSpaceOnUse" x1="164.9242" y1="11.3879" x2="169.9863" y2="11.3879">
				<stop  offset="0" style="stop-color:#595A5C"/>
				<stop  offset="1" style="stop-color:#E5E6E7;stop-opacity:0"/>
			</linearGradient>
			<path class="st48" d="M169.76,21.88c0,1.19-3.25,1.19-3.25,0V0.9c0-1.2,3.25-1.2,3.25,0V21.88z"/>
			
				<linearGradient id="SVGID_49_" gradientUnits="userSpaceOnUse" x1="-4557.0962" y1="11.3879" x2="-4552.0342" y2="11.3879" gradientTransform="matrix(-1 0 0 1 -4385.752 0)">
				<stop  offset="0" style="stop-color:#595A5C"/>
				<stop  offset="1" style="stop-color:#E5E6E7;stop-opacity:0"/>
			</linearGradient>
			<path class="st49" d="M166.51,21.88c0,1.19,3.25,1.19,3.25,0V0.9c0-1.2-3.25-1.2-3.25,0V21.88z"/>
		</g>
	</g>
</g>
<g>
	<linearGradient id="SVGID_50_" gradientUnits="userSpaceOnUse" x1="190" y1="25.6091" x2="190" y2="15.6091">
		<stop  offset="0" style="stop-color:#231F20"/>
		<stop  offset="1" style="stop-color:#3F3E3F;stop-opacity:0.9176"/>
	</linearGradient>
	<path class="st50" d="M184,23.61c0,1.66,1.34,2,3,2h6c1.66,0,3-0.34,3-2v-6c0-1.66-1.34-2-3-2h-6c-1.66,0-3,0.34-3,2V23.61z"/>
	<path class="st1" d="M184,23.61c0,1.66,1.34,2,3,2h6c1.66,0,3-0.34,3-2v-6c0-1.66-1.34-2-3-2h-6c-1.66,0-3,0.34-3,2V23.61z"/>
	<g>
		<g>
			<linearGradient id="SVGID_51_" gradientUnits="userSpaceOnUse" x1="187.8653" y1="-1.1643" x2="187.8653" y2="22.1381">
				<stop  offset="0" style="stop-color:#8F9293"/>
				<stop  offset="0.2151" style="stop-color:#BBBDBF"/>
				<stop  offset="0.4409" style="stop-color:#FFFFFF"/>
				<stop  offset="0.8065" style="stop-color:#BBBDBF"/>
				<stop  offset="1" style="stop-color:#595A5C"/>
			</linearGradient>
			<path class="st51" d="M189.49,21.88c0,1.19-3.25,1.19-3.25,0V0.9c0-1.2,3.25-1.2,3.25,0V21.88z"/>
			<linearGradient id="SVGID_52_" gradientUnits="userSpaceOnUse" x1="184.6556" y1="11.3879" x2="189.7177" y2="11.3879">
				<stop  offset="0" style="stop-color:#595A5C"/>
				<stop  offset="1" style="stop-color:#E5E6E7;stop-opacity:0"/>
			</linearGradient>
			<path class="st52" d="M189.49,21.88c0,1.19-3.25,1.19-3.25,0V0.9c0-1.2,3.25-1.2,3.25,0V21.88z"/>
			
				<linearGradient id="SVGID_53_" gradientUnits="userSpaceOnUse" x1="-4576.8267" y1="11.3879" x2="-4571.7656" y2="11.3879" gradientTransform="matrix(-1 0 0 1 -4385.752 0)">
				<stop  offset="0" style="stop-color:#595A5C"/>
				<stop  offset="1" style="stop-color:#E5E6E7;stop-opacity:0"/>
			</linearGradient>
			<path class="st53" d="M186.24,21.88c0,1.19,3.25,1.19,3.25,0V0.9c0-1.2-3.25-1.2-3.25,0V21.88z"/>
		</g>
		<g>
			<linearGradient id="SVGID_54_" gradientUnits="userSpaceOnUse" x1="192.1339" y1="-1.1643" x2="192.1339" y2="22.1381">
				<stop  offset="0" style="stop-color:#8F9293"/>
				<stop  offset="0.2151" style="stop-color:#BBBDBF"/>
				<stop  offset="0.4409" style="stop-color:#FFFFFF"/>
				<stop  offset="0.8065" style="stop-color:#BBBDBF"/>
				<stop  offset="1" style="stop-color:#595A5C"/>
			</linearGradient>
			<path class="st54" d="M193.76,21.88c0,1.19-3.25,1.19-3.25,0V0.9c0-1.2,3.25-1.2,3.25,0V21.88z"/>
			<linearGradient id="SVGID_55_" gradientUnits="userSpaceOnUse" x1="188.9242" y1="11.3879" x2="193.9863" y2="11.3879">
				<stop  offset="0" style="stop-color:#595A5C"/>
				<stop  offset="1" style="stop-color:#E5E6E7;stop-opacity:0"/>
			</linearGradient>
			<path class="st55" d="M193.76,21.88c0,1.19-3.25,1.19-3.25,0V0.9c0-1.2,3.25-1.2,3.25,0V21.88z"/>
			
				<linearGradient id="SVGID_56_" gradientUnits="userSpaceOnUse" x1="-4581.0962" y1="11.3879" x2="-4576.0342" y2="11.3879" gradientTransform="matrix(-1 0 0 1 -4385.752 0)">
				<stop  offset="0" style="stop-color:#595A5C"/>
				<stop  offset="1" style="stop-color:#E5E6E7;stop-opacity:0"/>
			</linearGradient>
			<path class="st56" d="M190.51,21.88c0,1.19,3.25,1.19,3.25,0V0.9c0-1.2-3.25-1.2-3.25,0V21.88z"/>
		</g>
	</g>
</g>
<g>
	<linearGradient id="SVGID_57_" gradientUnits="userSpaceOnUse" x1="214" y1="25.6091" x2="214" y2="15.6091">
		<stop  offset="0" style="stop-color:#231F20"/>
		<stop  offset="1" style="stop-color:#3F3E3F;stop-opacity:0.9176"/>
	</linearGradient>
	<path class="st57" d="M208,23.61c0,1.66,1.34,2,3,2h6c1.66,0,3-0.34,3-2v-6c0-1.66-1.34-2-3-2h-6c-1.66,0-3,0.34-3,2V23.61z"/>
	<path class="st1" d="M208,23.61c0,1.66,1.34,2,3,2h6c1.66,0,3-0.34,3-2v-6c0-1.66-1.34-2-3-2h-6c-1.66,0-3,0.34-3,2V23.61z"/>
	<g>
		<g>
			<linearGradient id="SVGID_58_" gradientUnits="userSpaceOnUse" x1="211.8653" y1="-1.1643" x2="211.8653" y2="22.1381">
				<stop  offset="0" style="stop-color:#8F9293"/>
				<stop  offset="0.2151" style="stop-color:#BBBDBF"/>
				<stop  offset="0.4409" style="stop-color:#FFFFFF"/>
				<stop  offset="0.8065" style="stop-color:#BBBDBF"/>
				<stop  offset="1" style="stop-color:#595A5C"/>
			</linearGradient>
			<path class="st58" d="M213.49,21.88c0,1.19-3.25,1.19-3.25,0V0.9c0-1.2,3.25-1.2,3.25,0V21.88z"/>
			<linearGradient id="SVGID_59_" gradientUnits="userSpaceOnUse" x1="208.6556" y1="11.3879" x2="213.7177" y2="11.3879">
				<stop  offset="0" style="stop-color:#595A5C"/>
				<stop  offset="1" style="stop-color:#E5E6E7;stop-opacity:0"/>
			</linearGradient>
			<path class="st59" d="M213.49,21.88c0,1.19-3.25,1.19-3.25,0V0.9c0-1.2,3.25-1.2,3.25,0V21.88z"/>
			
				<linearGradient id="SVGID_60_" gradientUnits="userSpaceOnUse" x1="-4600.8267" y1="11.3879" x2="-4595.7656" y2="11.3879" gradientTransform="matrix(-1 0 0 1 -4385.752 0)">
				<stop  offset="0" style="stop-color:#595A5C"/>
				<stop  offset="1" style="stop-color:#E5E6E7;stop-opacity:0"/>
			</linearGradient>
			<path class="st60" d="M210.24,21.88c0,1.19,3.25,1.19,3.25,0V0.9c0-1.2-3.25-1.2-3.25,0V21.88z"/>
		</g>
		<g>
			<linearGradient id="SVGID_61_" gradientUnits="userSpaceOnUse" x1="216.1339" y1="-1.1643" x2="216.1339" y2="22.1381">
				<stop  offset="0" style="stop-color:#8F9293"/>
				<stop  offset="0.2151" style="stop-color:#BBBDBF"/>
				<stop  offset="0.4409" style="stop-color:#FFFFFF"/>
				<stop  offset="0.8065" style="stop-color:#BBBDBF"/>
				<stop  offset="1" style="stop-color:#595A5C"/>
			</linearGradient>
			<path class="st61" d="M217.76,21.88c0,1.19-3.25,1.19-3.25,0V0.9c0-1.2,3.25-1.2,3.25,0V21.88z"/>
			<linearGradient id="SVGID_62_" gradientUnits="userSpaceOnUse" x1="212.9242" y1="11.3879" x2="217.9863" y2="11.3879">
				<stop  offset="0" style="stop-color:#595A5C"/>
				<stop  offset="1" style="stop-color:#E5E6E7;stop-opacity:0"/>
			</linearGradient>
			<path class="st62" d="M217.76,21.88c0,1.19-3.25,1.19-3.25,0V0.9c0-1.2,3.25-1.2,3.25,0V21.88z"/>
			
				<linearGradient id="SVGID_63_" gradientUnits="userSpaceOnUse" x1="-4605.0962" y1="11.3879" x2="-4600.0342" y2="11.3879" gradientTransform="matrix(-1 0 0 1 -4385.752 0)">
				<stop  offset="0" style="stop-color:#595A5C"/>
				<stop  offset="1" style="stop-color:#E5E6E7;stop-opacity:0"/>
			</linearGradient>
			<path class="st63" d="M214.51,21.88c0,1.19,3.25,1.19,3.25,0V0.9c0-1.2-3.25-1.2-3.25,0V21.88z"/>
		</g>
	</g>
</g>
<g>
	<linearGradient id="SVGID_64_" gradientUnits="userSpaceOnUse" x1="238" y1="25.6091" x2="238" y2="15.6091">
		<stop  offset="0" style="stop-color:#231F20"/>
		<stop  offset="1" style="stop-color:#3F3E3F;stop-opacity:0.9176"/>
	</linearGradient>
	<path class="st64" d="M232,23.61c0,1.66,1.34,2,3,2h6c1.66,0,3-0.34,3-2v-6c0-1.66-1.34-2-3-2h-6c-1.66,0-3,0.34-3,2V23.61z"/>
	<path class="st1" d="M232,23.61c0,1.66,1.34,2,3,2h6c1.66,0,3-0.34,3-2v-6c0-1.66-1.34-2-3-2h-6c-1.66,0-3,0.34-3,2V23.61z"/>
	<g>
		<g>
			<linearGradient id="SVGID_65_" gradientUnits="userSpaceOnUse" x1="235.8653" y1="-1.1643" x2="235.8653" y2="22.1381">
				<stop  offset="0" style="stop-color:#8F9293"/>
				<stop  offset="0.2151" style="stop-color:#BBBDBF"/>
				<stop  offset="0.4409" style="stop-color:#FFFFFF"/>
				<stop  offset="0.8065" style="stop-color:#BBBDBF"/>
				<stop  offset="1" style="stop-color:#595A5C"/>
			</linearGradient>
			<path class="st65" d="M237.49,21.88c0,1.19-3.25,1.19-3.25,0V0.9c0-1.2,3.25-1.2,3.25,0V21.88z"/>
			<linearGradient id="SVGID_66_" gradientUnits="userSpaceOnUse" x1="232.6556" y1="11.3879" x2="237.7177" y2="11.3879">
				<stop  offset="0" style="stop-color:#595A5C"/>
				<stop  offset="1" style="stop-color:#E5E6E7;stop-opacity:0"/>
			</linearGradient>
			<path class="st66" d="M237.49,21.88c0,1.19-3.25,1.19-3.25,0V0.9c0-1.2,3.25-1.2,3.25,0V21.88z"/>
			
				<linearGradient id="SVGID_67_" gradientUnits="userSpaceOnUse" x1="-4624.8267" y1="11.3879" x2="-4619.7656" y2="11.3879" gradientTransform="matrix(-1 0 0 1 -4385.752 0)">
				<stop  offset="0" style="stop-color:#595A5C"/>
				<stop  offset="1" style="stop-color:#E5E6E7;stop-opacity:0"/>
			</linearGradient>
			<path class="st67" d="M234.24,21.88c0,1.19,3.25,1.19,3.25,0V0.9c0-1.2-3.25-1.2-3.25,0V21.88z"/>
		</g>
		<g>
			<linearGradient id="SVGID_68_" gradientUnits="userSpaceOnUse" x1="240.1339" y1="-1.1643" x2="240.1339" y2="22.1381">
				<stop  offset="0" style="stop-color:#8F9293"/>
				<stop  offset="0.2151" style="stop-color:#BBBDBF"/>
				<stop  offset="0.4409" style="stop-color:#FFFFFF"/>
				<stop  offset="0.8065" style="stop-color:#BBBDBF"/>
				<stop  offset="1" style="stop-color:#595A5C"/>
			</linearGradient>
			<path class="st68" d="M241.76,21.88c0,1.19-3.25,1.19-3.25,0V0.9c0-1.2,3.25-1.2,3.25,0V21.88z"/>
			<linearGradient id="SVGID_69_" gradientUnits="userSpaceOnUse" x1="236.9242" y1="11.3879" x2="241.9863" y2="11.3879">
				<stop  offset="0" style="stop-color:#595A5C"/>
				<stop  offset="1" style="stop-color:#E5E6E7;stop-opacity:0"/>
			</linearGradient>
			<path class="st69" d="M241.76,21.88c0,1.19-3.25,1.19-3.25,0V0.9c0-1.2,3.25-1.2,3.25,0V21.88z"/>
			
				<linearGradient id="SVGID_70_" gradientUnits="userSpaceOnUse" x1="-4629.0962" y1="11.3879" x2="-4624.0342" y2="11.3879" gradientTransform="matrix(-1 0 0 1 -4385.752 0)">
				<stop  offset="0" style="stop-color:#595A5C"/>
				<stop  offset="1" style="stop-color:#E5E6E7;stop-opacity:0"/>
			</linearGradient>
			<path class="st70" d="M238.51,21.88c0,1.19,3.25,1.19,3.25,0V0.9c0-1.2-3.25-1.2-3.25,0V21.88z"/>
		</g>
	</g>
</g>
<g>
	<linearGradient id="SVGID_71_" gradientUnits="userSpaceOnUse" x1="262" y1="25.6091" x2="262" y2="15.6091">
		<stop  offset="0" style="stop-color:#231F20"/>
		<stop  offset="1" style="stop-color:#3F3E3F;stop-opacity:0.9176"/>
	</linearGradient>
	<path class="st71" d="M256,23.61c0,1.66,1.34,2,3,2h6c1.66,0,3-0.34,3-2v-6c0-1.66-1.34-2-3-2h-6c-1.66,0-3,0.34-3,2V23.61z"/>
	<path class="st1" d="M256,23.61c0,1.66,1.34,2,3,2h6c1.66,0,3-0.34,3-2v-6c0-1.66-1.34-2-3-2h-6c-1.66,0-3,0.34-3,2V23.61z"/>
	<g>
		<g>
			<linearGradient id="SVGID_72_" gradientUnits="userSpaceOnUse" x1="259.8653" y1="-1.1643" x2="259.8653" y2="22.1381">
				<stop  offset="0" style="stop-color:#8F9293"/>
				<stop  offset="0.2151" style="stop-color:#BBBDBF"/>
				<stop  offset="0.4409" style="stop-color:#FFFFFF"/>
				<stop  offset="0.8065" style="stop-color:#BBBDBF"/>
				<stop  offset="1" style="stop-color:#595A5C"/>
			</linearGradient>
			<path class="st72" d="M261.49,21.88c0,1.19-3.25,1.19-3.25,0V0.9c0-1.2,3.25-1.2,3.25,0V21.88z"/>
			<linearGradient id="SVGID_73_" gradientUnits="userSpaceOnUse" x1="256.6556" y1="11.3879" x2="261.7177" y2="11.3879">
				<stop  offset="0" style="stop-color:#595A5C"/>
				<stop  offset="1" style="stop-color:#E5E6E7;stop-opacity:0"/>
			</linearGradient>
			<path class="st73" d="M261.49,21.88c0,1.19-3.25,1.19-3.25,0V0.9c0-1.2,3.25-1.2,3.25,0V21.88z"/>
			
				<linearGradient id="SVGID_74_" gradientUnits="userSpaceOnUse" x1="-4648.8267" y1="11.3879" x2="-4643.7656" y2="11.3879" gradientTransform="matrix(-1 0 0 1 -4385.752 0)">
				<stop  offset="0" style="stop-color:#595A5C"/>
				<stop  offset="1" style="stop-color:#E5E6E7;stop-opacity:0"/>
			</linearGradient>
			<path class="st74" d="M258.24,21.88c0,1.19,3.25,1.19,3.25,0V0.9c0-1.2-3.25-1.2-3.25,0V21.88z"/>
		</g>
		<g>
			<linearGradient id="SVGID_75_" gradientUnits="userSpaceOnUse" x1="264.1339" y1="-1.1643" x2="264.1339" y2="22.1381">
				<stop  offset="0" style="stop-color:#8F9293"/>
				<stop  offset="0.2151" style="stop-color:#BBBDBF"/>
				<stop  offset="0.4409" style="stop-color:#FFFFFF"/>
				<stop  offset="0.8065" style="stop-color:#BBBDBF"/>
				<stop  offset="1" style="stop-color:#595A5C"/>
			</linearGradient>
			<path class="st75" d="M265.76,21.88c0,1.19-3.25,1.19-3.25,0V0.9c0-1.2,3.25-1.2,3.25,0V21.88z"/>
			<linearGradient id="SVGID_76_" gradientUnits="userSpaceOnUse" x1="260.9242" y1="11.3879" x2="265.9863" y2="11.3879">
				<stop  offset="0" style="stop-color:#595A5C"/>
				<stop  offset="1" style="stop-color:#E5E6E7;stop-opacity:0"/>
			</linearGradient>
			<path class="st76" d="M265.76,21.88c0,1.19-3.25,1.19-3.25,0V0.9c0-1.2,3.25-1.2,3.25,0V21.88z"/>
			
				<linearGradient id="SVGID_77_" gradientUnits="userSpaceOnUse" x1="-4653.0962" y1="11.3879" x2="-4648.0342" y2="11.3879" gradientTransform="matrix(-1 0 0 1 -4385.752 0)">
				<stop  offset="0" style="stop-color:#595A5C"/>
				<stop  offset="1" style="stop-color:#E5E6E7;stop-opacity:0"/>
			</linearGradient>
			<path class="st77" d="M262.51,21.88c0,1.19,3.25,1.19,3.25,0V0.9c0-1.2-3.25-1.2-3.25,0V21.88z"/>
		</g>
	</g>
</g>
<g>
	<linearGradient id="SVGID_78_" gradientUnits="userSpaceOnUse" x1="286" y1="25.6091" x2="286" y2="15.6091">
		<stop  offset="0" style="stop-color:#231F20"/>
		<stop  offset="1" style="stop-color:#3F3E3F;stop-opacity:0.9176"/>
	</linearGradient>
	<path class="st78" d="M280,23.61c0,1.66,1.34,2,3,2h6c1.66,0,3-0.34,3-2v-6c0-1.66-1.34-2-3-2h-6c-1.66,0-3,0.34-3,2V23.61z"/>
	<path class="st1" d="M280,23.61c0,1.66,1.34,2,3,2h6c1.66,0,3-0.34,3-2v-6c0-1.66-1.34-2-3-2h-6c-1.66,0-3,0.34-3,2V23.61z"/>
	<g>
		<g>
			<linearGradient id="SVGID_79_" gradientUnits="userSpaceOnUse" x1="283.8653" y1="-1.1643" x2="283.8653" y2="22.1381">
				<stop  offset="0" style="stop-color:#8F9293"/>
				<stop  offset="0.2151" style="stop-color:#BBBDBF"/>
				<stop  offset="0.4409" style="stop-color:#FFFFFF"/>
				<stop  offset="0.8065" style="stop-color:#BBBDBF"/>
				<stop  offset="1" style="stop-color:#595A5C"/>
			</linearGradient>
			<path class="st79" d="M285.49,21.88c0,1.19-3.25,1.19-3.25,0V0.9c0-1.2,3.25-1.2,3.25,0V21.88z"/>
			<linearGradient id="SVGID_80_" gradientUnits="userSpaceOnUse" x1="280.6556" y1="11.3879" x2="285.7177" y2="11.3879">
				<stop  offset="0" style="stop-color:#595A5C"/>
				<stop  offset="1" style="stop-color:#E5E6E7;stop-opacity:0"/>
			</linearGradient>
			<path class="st80" d="M285.49,21.88c0,1.19-3.25,1.19-3.25,0V0.9c0-1.2,3.25-1.2,3.25,0V21.88z"/>
			
				<linearGradient id="SVGID_81_" gradientUnits="userSpaceOnUse" x1="-4672.8267" y1="11.3879" x2="-4667.7656" y2="11.3879" gradientTransform="matrix(-1 0 0 1 -4385.752 0)">
				<stop  offset="0" style="stop-color:#595A5C"/>
				<stop  offset="1" style="stop-color:#E5E6E7;stop-opacity:0"/>
			</linearGradient>
			<path class="st81" d="M282.24,21.88c0,1.19,3.25,1.19,3.25,0V0.9c0-1.2-3.25-1.2-3.25,0V21.88z"/>
		</g>
		<g>
			<linearGradient id="SVGID_82_" gradientUnits="userSpaceOnUse" x1="288.1339" y1="-1.1643" x2="288.1339" y2="22.1381">
				<stop  offset="0" style="stop-color:#8F9293"/>
				<stop  offset="0.2151" style="stop-color:#BBBDBF"/>
				<stop  offset="0.4409" style="stop-color:#FFFFFF"/>
				<stop  offset="0.8065" style="stop-color:#BBBDBF"/>
				<stop  offset="1" style="stop-color:#595A5C"/>
			</linearGradient>
			<path class="st82" d="M289.76,21.88c0,1.19-3.25,1.19-3.25,0V0.9c0-1.2,3.25-1.2,3.25,0V21.88z"/>
			<linearGradient id="SVGID_83_" gradientUnits="userSpaceOnUse" x1="284.9242" y1="11.3879" x2="289.9863" y2="11.3879">
				<stop  offset="0" style="stop-color:#595A5C"/>
				<stop  offset="1" style="stop-color:#E5E6E7;stop-opacity:0"/>
			</linearGradient>
			<path class="st83" d="M289.76,21.88c0,1.19-3.25,1.19-3.25,0V0.9c0-1.2,3.25-1.2,3.25,0V21.88z"/>
			
				<linearGradient id="SVGID_84_" gradientUnits="userSpaceOnUse" x1="-4677.0962" y1="11.3879" x2="-4672.0342" y2="11.3879" gradientTransform="matrix(-1 0 0 1 -4385.752 0)">
				<stop  offset="0" style="stop-color:#595A5C"/>
				<stop  offset="1" style="stop-color:#E5E6E7;stop-opacity:0"/>
			</linearGradient>
			<path class="st84" d="M286.51,21.88c0,1.19,3.25,1.19,3.25,0V0.9c0-1.2-3.25-1.2-3.25,0V21.88z"/>
		</g>
	</g>
</g>
</svg>
